<svg width="1021" height="288" viewBox="0 0 1021 288" fill="none" xmlns="http://www.w3.org/2000/svg">
<rect x="0.0800171" y="125.656" width="64.2038" height="162.344" rx="32.1019" fill="url(#paint0_linear_2008_892)"/>
<circle cx="144.08" cy="144" r="111.898" stroke="#0197FB" stroke-width="64.2038"/>
<path d="M391.8 75.6406C413.227 75.6406 429.677 79.4422 441.151 87.0454C452.625 94.5104 458.362 106.814 458.362 123.956C458.362 141.236 452.556 153.746 440.944 161.488C429.332 169.091 412.743 172.892 391.178 172.892H381.017V221H348.669V79.3731C355.719 77.9907 363.184 77.023 371.064 76.4701C378.943 75.9171 385.855 75.6406 391.8 75.6406ZM393.873 103.22C391.523 103.22 389.173 103.289 386.823 103.427C384.611 103.565 382.676 103.703 381.017 103.842V145.314H391.178C402.375 145.314 410.808 143.793 416.476 140.752C422.143 137.71 424.977 132.043 424.977 123.748C424.977 119.739 424.217 116.421 422.696 113.795C421.314 111.168 419.24 109.095 416.476 107.574C413.849 105.915 410.6 104.809 406.73 104.256C402.859 103.565 398.573 103.22 393.873 103.22ZM523.588 223.074C514.603 222.935 507.276 221.968 501.608 220.171C496.079 218.373 491.655 215.885 488.337 212.706C485.158 209.388 482.946 205.448 481.702 200.886C480.596 196.186 480.043 190.933 480.043 185.127V65.0653L510.939 60.0886V178.906C510.939 181.671 511.147 184.159 511.561 186.371C511.976 188.583 512.736 190.449 513.842 191.97C515.087 193.49 516.815 194.734 519.026 195.702C521.238 196.67 524.21 197.292 527.943 197.568L523.588 223.074ZM638.757 217.268C633.504 218.788 626.731 220.171 618.436 221.415C610.142 222.797 601.433 223.488 592.309 223.488C583.047 223.488 575.305 222.244 569.084 219.756C563.002 217.268 558.163 213.812 554.569 209.388C550.975 204.826 548.418 199.435 546.897 193.214C545.376 186.993 544.616 180.15 544.616 172.685V111.929H575.513V168.953C575.513 178.906 576.826 186.094 579.452 190.518C582.079 194.942 586.987 197.154 594.175 197.154C596.387 197.154 598.737 197.084 601.225 196.946C603.714 196.67 605.925 196.393 607.861 196.117V111.929H638.757V217.268ZM667.76 115.661C673.013 114.14 679.787 112.758 688.082 111.514C696.376 110.132 705.085 109.44 714.209 109.44C723.471 109.44 731.143 110.684 737.226 113.173C743.447 115.523 748.354 118.91 751.948 123.333C755.543 127.757 758.1 133.01 759.621 139.093C761.141 145.175 761.902 151.949 761.902 159.414V221H731.005V163.147C731.005 153.193 729.692 146.143 727.065 141.996C724.439 137.849 719.531 135.775 712.343 135.775C710.131 135.775 707.781 135.913 705.292 136.19C702.804 136.328 700.592 136.535 698.657 136.812V221H667.76V115.661ZM816.202 162.939C816.202 180.219 823.184 188.859 837.146 188.859C840.325 188.859 843.298 188.444 846.062 187.615C848.827 186.786 851.177 185.818 853.113 184.712V135.36C851.592 135.084 849.795 134.876 847.721 134.738C845.648 134.462 843.228 134.324 840.464 134.324C832.307 134.324 826.225 137.019 822.216 142.411C818.207 147.802 816.202 154.645 816.202 162.939ZM884.009 207.314C884.009 225.147 879.447 238.349 870.323 246.92C861.338 255.629 847.376 259.984 828.437 259.984C821.801 259.984 815.166 259.362 808.53 258.117C801.895 257.012 795.743 255.491 790.075 253.556L795.466 227.636C800.305 229.571 805.351 231.092 810.604 232.197C815.995 233.303 822.078 233.856 828.851 233.856C837.699 233.856 843.92 231.921 847.514 228.05C851.246 224.18 853.113 219.203 853.113 213.12V209.18C849.795 210.701 846.339 211.876 842.745 212.706C839.289 213.397 835.487 213.742 831.34 213.742C816.272 213.742 804.729 209.319 796.711 200.471C788.693 191.486 784.684 178.975 784.684 162.939C784.684 154.921 785.928 147.664 788.416 141.166C790.905 134.531 794.499 128.863 799.199 124.163C804.037 119.463 809.913 115.868 816.825 113.38C823.737 110.754 831.547 109.44 840.256 109.44C843.989 109.44 847.79 109.648 851.661 110.062C855.67 110.339 859.61 110.754 863.481 111.307C867.351 111.86 871.015 112.551 874.471 113.38C878.065 114.071 881.244 114.832 884.009 115.661V207.314ZM907.804 167.294C907.804 157.617 909.255 149.184 912.158 141.996C915.2 134.669 919.139 128.587 923.978 123.748C928.816 118.91 934.346 115.246 940.567 112.758C946.926 110.27 953.423 109.026 960.058 109.026C975.541 109.026 987.776 113.795 996.761 123.333C1005.75 132.734 1010.24 146.627 1010.24 165.013C1010.24 166.81 1010.17 168.814 1010.03 171.026C1009.89 173.1 1009.76 174.966 1009.62 176.625H939.53C940.221 182.984 943.193 188.03 948.446 191.762C953.699 195.495 960.75 197.361 969.597 197.361C975.265 197.361 980.794 196.877 986.186 195.909C991.715 194.804 996.208 193.49 999.664 191.97L1003.81 217.06C1002.15 217.89 999.941 218.719 997.176 219.548C994.411 220.378 991.301 221.069 987.845 221.622C984.527 222.313 980.933 222.866 977.062 223.281C973.191 223.696 969.321 223.903 965.45 223.903C955.635 223.903 947.064 222.452 939.737 219.548C932.549 216.645 926.535 212.706 921.697 207.729C916.997 202.614 913.472 196.601 911.121 189.689C908.91 182.777 907.804 175.312 907.804 167.294ZM980.38 155.474C980.242 152.848 979.758 150.29 978.928 147.802C978.237 145.314 977.062 143.102 975.403 141.166C973.882 139.231 971.878 137.641 969.39 136.397C967.04 135.153 964.067 134.531 960.473 134.531C957.017 134.531 954.045 135.153 951.557 136.397C949.068 137.503 946.995 139.024 945.336 140.959C943.677 142.894 942.364 145.175 941.396 147.802C940.567 150.29 939.945 152.848 939.53 155.474H980.38Z" fill="#E2E8F0"/>
<defs>
<linearGradient id="paint0_linear_2008_892" x1="32.1819" y1="125.656" x2="32.1819" y2="288" gradientUnits="userSpaceOnUse">
<stop stop-color="#015A95"/>
<stop offset="1" stop-color="#0197FB"/>
</linearGradient>
</defs>
</svg>
